<svg width="87" height="129" viewBox="0 0 87 129" fill="none" xmlns="http://www.w3.org/2000/svg">
<path d="M16.2425 0.0298575C15.7067 -0.104091 15.1638 0.221669 15.0299 0.757464C14.8959 1.29326 15.2217 1.83619 15.7575 1.97014L16.2425 0.0298575ZM46.19 22.8761L45.1924 22.9449L46.19 22.8761ZM75.5 82L76.0251 81.149L75.5 82ZM0.478069 118.523C0.00697684 118.811 -0.141242 119.427 0.147012 119.898L4.84439 127.575C5.13265 128.046 5.74822 128.194 6.21931 127.906C6.6904 127.618 6.83862 127.002 6.55037 126.531L2.37492 119.707L9.19882 115.532C9.66991 115.244 9.81813 114.628 9.52988 114.157C9.24162 113.686 8.62605 113.538 8.15496 113.826L0.478069 118.523ZM15.7575 1.97014C21.7003 3.45585 28.9421 5.99339 34.7726 9.56573C40.6479 13.1655 44.8271 17.6487 45.1924 22.9449L47.1877 22.8073C46.7529 16.5035 41.8372 11.5487 35.8174 7.86037C29.7529 4.14466 22.2997 1.54415 16.2425 0.0298575L15.7575 1.97014ZM45.1924 22.9449C45.4188 26.2272 44.0306 29.373 41.6468 32.5802C39.2584 35.7936 35.9748 38.9344 32.5864 42.2202C29.229 45.4758 25.778 48.8658 23.2059 52.4963C20.6269 56.1366 18.8664 60.107 19.0005 64.5303L20.9995 64.4697C20.8836 60.643 22.3969 57.0979 24.8379 53.6525C27.2858 50.1972 30.601 46.9313 33.9787 43.6559C37.3252 40.4108 40.7454 37.1456 43.252 33.7733C45.7632 30.3947 47.4613 26.775 47.1877 22.8073L45.1924 22.9449ZM19.0005 64.5303C19.0698 66.8186 19.8414 68.7194 21.1767 70.2748C22.4963 71.8119 24.328 72.9683 26.4635 73.8633C30.7139 75.6448 36.4172 76.4893 42.4176 77.0879C48.4906 77.6937 54.8394 78.0465 60.6696 78.8146C66.4989 79.5826 71.5564 80.7417 74.9749 82.851L76.0251 81.149C72.2161 78.7987 66.7848 77.603 60.9308 76.8318C55.0777 76.0606 48.5487 75.6896 42.6161 75.0978C36.6108 74.4987 31.1808 73.6719 27.2366 72.0188C25.2749 71.1966 23.744 70.1949 22.6942 68.972C21.66 67.7675 21.0552 66.3064 20.9995 64.4697L19.0005 64.5303ZM74.9749 82.851C80.6152 86.3312 83.7836 91.4391 84.2379 96.8012C84.6918 102.158 82.4496 107.919 76.9653 112.733C65.9607 122.392 41.877 128.19 1.23409 118.404L0.765908 120.348C41.623 130.186 66.5393 124.546 78.2847 114.236C84.1754 109.065 86.7457 102.71 86.2308 96.6324C85.7164 90.5609 82.1348 84.9188 76.0251 81.149L74.9749 82.851Z" fill="white"/>
</svg>
